<svg xmlns="http://www.w3.org/2000/svg" xmlns:xlink="http://www.w3.org/1999/xlink" width="30" height="30" viewBox="0 0 30 30"><defs><style>.a{fill:none;}.b{clip-path:url(#a);}.c{fill:#244d8a;}.d{fill:#fff;}</style><clipPath id="a"><rect class="a" width="30" height="30"/></clipPath></defs><g class="b"><rect class="c" width="30" height="30"/><g transform="translate(5.491 5.513)"><path class="d" d="M71.144,69.215a2.281,2.281,0,1,1-2.3,2.278A2.29,2.29,0,0,1,71.144,69.215Z" transform="translate(-68.847 -69.215)"/><path class="d" d="M77.5,187.336H74.829a.628.628,0,0,1-.628-.628V175.3a.628.628,0,0,1,.628-.628H77.5a.628.628,0,0,1,.628.628v11.408A.628.628,0,0,1,77.5,187.336Z" transform="translate(-73.881 -168.365)"/><path class="d" d="M193.793,173.592a4.33,4.33,0,0,0-4.33-4.331h-.686a3.852,3.852,0,0,0-3.37,1.989l-.036,0v-1.4a.261.261,0,0,0-.261-.261h-3.336a.261.261,0,0,0-.261.261V181.99a.261.261,0,0,0,.261.261h3.409a.261.261,0,0,0,.261-.261v-7.016a2.224,2.224,0,0,1,2.18-2.233,2.205,2.205,0,0,1,2.231,2.205v7.045a.261.261,0,0,0,.261.261h3.418a.261.261,0,0,0,.261-.261v-8.4Z" transform="translate(-174.775 -163.279)"/></g></g></svg>