<svg xmlns="http://www.w3.org/2000/svg" width="29.231" height="27.188" viewBox="0 0 29.231 27.188"><defs><style>.a{fill:#fff;}</style></defs><g transform="translate(-15.616 -14.539)"><path class="a" d="M132.344,127.033l-5.437-1.561A2.026,2.026,0,0,0,124.9,126l-1.329,1.355a1.981,1.981,0,0,1-2.153.454c-2.572-1.041-7.982-5.851-9.364-8.257a1.981,1.981,0,0,1,.157-2.2l1.161-1.5a2.026,2.026,0,0,0,.25-2.059l-2.287-5.173a2.027,2.027,0,0,0-3.166-.725c-1.517,1.283-3.318,3.234-3.537,5.394-.386,3.809,1.248,8.611,7.425,14.377,7.137,6.661,12.852,7.541,16.573,6.64,2.111-.511,3.8-2.561,4.862-4.239A2.027,2.027,0,0,0,132.344,127.033Z" transform="translate(-88.965 -92.878)"/></g></svg>