<svg xmlns="http://www.w3.org/2000/svg" xmlns:xlink="http://www.w3.org/1999/xlink" width="56.136" height="56.593" viewBox="0 0 56.136 56.593"><defs><style>.a{fill:none;}.b{clip-path:url(#a);}.c{fill:#fff;}</style><clipPath id="a"><rect class="a" width="56.136" height="56.593"/></clipPath></defs><g class="b"><path class="c" d="M28.386.033A28.079,28.079,0,0,0,4.745,40.815L1.765,55.28a1.092,1.092,0,0,0,1.322,1.283L17.261,53.2A28.07,28.07,0,1,0,28.386.033ZM45.3,43.608a21.991,21.991,0,0,1-25.322,4.145L18,46.77l-8.69,2.059,1.829-8.88-.972-1.9a22,22,0,0,1,4.048-25.517A21.977,21.977,0,1,1,45.3,43.608Z" transform="translate(-1.69)"/><path class="c" d="M132.344,127.033l-5.437-1.561A2.026,2.026,0,0,0,124.9,126l-1.329,1.355a1.981,1.981,0,0,1-2.153.454c-2.572-1.041-7.982-5.851-9.364-8.257a1.981,1.981,0,0,1,.157-2.2l1.161-1.5a2.026,2.026,0,0,0,.25-2.059l-2.287-5.173a2.027,2.027,0,0,0-3.166-.725c-1.517,1.283-3.318,3.234-3.537,5.394-.386,3.809,1.248,8.611,7.425,14.377,7.137,6.661,12.852,7.541,16.573,6.64,2.111-.511,3.8-2.561,4.862-4.239A2.027,2.027,0,0,0,132.344,127.033Z" transform="translate(-90.655 -92.878)"/></g></svg>