<?xml version="1.0" encoding="utf-8"?>
<!-- Generator: Adobe Illustrator 23.0.1, SVG Export Plug-In . SVG Version: 6.00 Build 0)  -->
<svg version="1.1" id="Layer_1" xmlns="http://www.w3.org/2000/svg" xmlns:xlink="http://www.w3.org/1999/xlink" x="0px" y="0px"
	 viewBox="0 0 58 58" style="enable-background:new 0 0 58 58;" xml:space="preserve">
<style type="text/css">
	.st0{clip-path:url(#SVGID_2_);}
	.st1{fill:#FFFFFF;}
	.st2{fill:none;}
</style>
<g>
	<g>
		<defs>
			<rect id="SVGID_1_" x="5" y="5" width="48" height="48"/>
		</defs>
		<clipPath id="SVGID_2_">
			<use xlink:href="#SVGID_1_"  style="overflow:visible;"/>
		</clipPath>
		<g class="st0">
			<g transform="translate(-1.07 1)">
				<path class="st1" d="M41.1,33.1l-4.5-1.3c-0.6-0.2-1.2,0-1.7,0.4l-1.1,1.1c-0.5,0.5-1.2,0.6-1.8,0.4c-2.1-0.9-6.6-4.8-7.7-6.8
					c-0.3-0.6-0.3-1.3,0.1-1.8l1-1.2c0.4-0.5,0.5-1.1,0.2-1.7l-1.9-4.3c-0.4-0.8-1.4-1.2-2.2-0.9c-0.1,0.1-0.3,0.2-0.4,0.3
					c-1.3,1.1-2.7,2.7-2.9,4.5c-0.3,3.2,1,7.1,6.1,11.9c5.9,5.5,10.6,6.2,13.7,5.5c1.7-0.4,3.1-2.1,4-3.5c0.5-0.8,0.3-1.8-0.5-2.3
					C41.4,33.2,41.2,33.1,41.1,33.1z"/>
			</g>
			<g>
				<circle class="st2" cx="29" cy="29" r="24"/>
				<path class="st1" d="M29,53.5c-13.5,0-24.5-11-24.5-24.5c0-13.5,11-24.5,24.5-24.5c13.5,0,24.5,11,24.5,24.5
					C53.5,42.5,42.5,53.5,29,53.5z M29,10.5c-10.2,0-18.5,8.3-18.5,18.5S18.8,47.5,29,47.5S47.5,39.2,47.5,29S39.2,10.5,29,10.5z"/>
			</g>
		</g>
	</g>
</g>
</svg>
