<?xml version="1.0" encoding="utf-8"?>
<!-- Generator: Adobe Illustrator 23.0.1, SVG Export Plug-In . SVG Version: 6.00 Build 0)  -->
<svg version="1.1" id="Layer_1" xmlns="http://www.w3.org/2000/svg" xmlns:xlink="http://www.w3.org/1999/xlink" x="0px" y="0px"
	 viewBox="0 0 58.6 64.6" style="enable-background:new 0 0 58.6 64.6;" xml:space="preserve">
<style type="text/css">
	.st0{clip-path:url(#SVGID_2_);}
	.st1{fill:#A4C267;}
	.st2{fill:#FFFFFF;}
	.st3{fill:none;}
</style>
<g>
	<defs>
		<rect id="SVGID_1_" x="5" y="5.6" width="48.5" height="53.4"/>
	</defs>
	<clipPath id="SVGID_2_">
		<use xlink:href="#SVGID_1_"  style="overflow:visible;"/>
	</clipPath>
	<g class="st0">
		<path class="st1" d="M5,23v18.5c0,2.9,1.6,5.6,4.1,7.1l16,9.3c2.5,1.5,5.7,1.5,8.2,0l16-9.3c2.5-1.5,4.1-4.2,4.1-7.1V23
			c0-2.9-1.6-5.6-4.1-7.1l-16-9.3c-2.5-1.5-5.7-1.5-8.2,0l-16,9.3C6.6,17.4,5,20.1,5,23z"/>
		<g transform="translate(14.885 10.979)">
			<g transform="translate(0.159 33.387)">
				<path class="st2" d="M5.4,0.6L5.2,0H3.8L3.6,0.6H3.4l1-2.5c0-0.1,0.1-0.1,0.2-0.1c0.1,0,0.2,0,0.2,0.1l0.9,2.5H5.4z M4.5-1.8
					L3.9-0.2h1.2L4.5-1.8z"/>
				<path class="st2" d="M7,0.7C6.5,0.7,6,0.3,6-0.1c0-0.1,0-0.1,0-0.2V-2h0.2v1.7c0,0.4,0.3,0.8,0.8,0.8c0.4,0,0.8-0.3,0.8-0.8
					c0,0,0,0,0,0V-2H8v1.7c0,0.5-0.3,0.9-0.8,1C7.1,0.7,7,0.7,7,0.7z"/>
				<path class="st2" d="M9.4,0.6H8.8c-0.1,0-0.2-0.1-0.2-0.2c0,0,0,0,0,0v-2.2C8.5-1.9,8.6-2,8.7-2c0,0,0,0,0,0h0.7
					c0.7,0,1.2,0.5,1.2,1.3c0.1,0.6-0.4,1.2-1,1.3C9.5,0.6,9.5,0.6,9.4,0.6z M9.4-1.8H8.7v2.2h0.7c0.6,0,0.9-0.4,0.9-1.1
					C10.4-1.4,10-1.8,9.4-1.8L9.4-1.8z"/>
				<path class="st2" d="M11.1,0.6V-2h0.2v2.6H11.1z"/>
				<path class="st2" d="M12.8-1.8v2.4h-0.2v-2.4h-0.8V-2h1.9v0.2H12.8z"/>
				<path class="st2" d="M14.9,0.6c-0.7,0-1.2-0.5-1.2-1.3c-0.1-0.6,0.4-1.2,1-1.3c0.1,0,0.1,0,0.2,0c0.7,0,1.2,0.5,1.2,1.3
					c0.1,0.6-0.4,1.2-1,1.3C15.1,0.6,15,0.6,14.9,0.6z M14.9-1.8c-0.6,0-1,0.4-1,1.1s0.4,1.1,1,1.1s0.9-0.4,0.9-1.1
					S15.5-1.8,14.9-1.8L14.9-1.8z"/>
				<path class="st2" d="M18.3,0.6l-0.5-1.1h-0.9v1.1h-0.2v-2.4c0-0.1,0.1-0.2,0.2-0.2c0,0,0,0,0,0h0.9c0.3,0,0.7,0.2,0.7,0.6
					c0,0,0,0.1,0,0.1c0,0.2-0.1,0.4-0.2,0.5L18-0.5l0.5,1.2H18.3z M17.7-1.8h-0.8v1.2h1L18-0.9c0.1-0.1,0.2-0.3,0.2-0.4
					c0-0.2-0.1-0.5-0.4-0.5C17.7-1.8,17.7-1.8,17.7-1.8L17.7-1.8z"/>
				<path class="st2" d="M18.9,0.6V-2h0.2v2.6H18.9z"/>
				<path class="st2" d="M21.5,0.6L21.3,0H20l-0.2,0.6h-0.2l1-2.5c0-0.1,0.1-0.1,0.2-0.1c0.1,0,0.2,0,0.2,0.1l0.9,2.5H21.5z
					 M20.6-1.8L20-0.2h1.2L20.6-1.8z"/>
				<path class="st2" d="M24.7,0.6l-0.2-0.2c-0.2,0.2-0.5,0.3-0.8,0.3c-0.5,0-0.8-0.3-0.8-0.7c0-0.3,0.1-0.5,0.6-0.7
					c-0.2-0.2-0.3-0.4-0.3-0.7c0-0.4,0.3-0.6,0.7-0.6c0,0,0,0,0.1,0c0.4,0,0.7,0.2,0.7,0.6c0,0.4-0.2,0.6-0.7,0.8l0.7,0.8
					c0.1-0.2,0.2-0.5,0.2-0.7V-1h0.2v0.3c0,0.3-0.1,0.6-0.3,0.9L25,0.6L24.7,0.6z M23.6-0.6c-0.4,0.2-0.5,0.3-0.5,0.6
					s0.2,0.5,0.6,0.5c0.2,0,0.5-0.1,0.7-0.2L23.6-0.6z M23.8-1.9c-0.4,0-0.5,0.2-0.5,0.4c0,0.2,0.1,0.3,0.4,0.6
					c0.4-0.2,0.6-0.3,0.6-0.6C24.3-1.7,24.2-1.9,23.8-1.9L23.8-1.9z"/>
				<path class="st2" d="M3.6,2.2c0.2,0,0.5,0.1,0.7,0.1l0.2,0l0,0.2L4.2,2.5C4,2.5,3.8,2.4,3.6,2.4C3,2.4,2.7,2.8,2.7,3.5
					s0.4,1.1,0.9,1.1c0.2,0,0.4-0.1,0.6-0.1l0.2-0.1l0,0.2L4.3,4.8C4.1,4.8,3.8,4.9,3.6,4.9c-0.7,0-1.2-0.4-1.2-1.3
					C2.4,2.6,3,2.2,3.6,2.2z"/>
				<path class="st2" d="M5.9,4.9c-0.7,0-1.2-0.5-1.2-1.3C4.6,2.9,5,2.3,5.7,2.2c0.1,0,0.1,0,0.2,0C6.6,2.2,7,2.7,7,3.5
					c0.1,0.6-0.4,1.2-1,1.3C6,4.9,5.9,4.9,5.9,4.9z M5.9,2.4c-0.6,0-1,0.4-1,1.1s0.4,1.1,1,1.1s0.9-0.4,0.9-1.1S6.4,2.4,5.9,2.4z"/>
				<path class="st2" d="M7.7,4.9H7.5V2.4c0-0.1,0-0.2,0.1-0.2c0,0,0,0,0,0c0.1,0,0.1,0,0.2,0.1l1.4,2.3V2.2h0.2v2.5
					c0,0.1,0,0.2-0.1,0.2c0,0,0,0,0,0c-0.1,0-0.1,0-0.2-0.1L7.7,2.5L7.7,4.9z"/>
				<path class="st2" d="M11.2,3.5c0.4,0.1,0.6,0.3,0.6,0.7c0,0.4-0.3,0.7-0.7,0.7c0,0-0.1,0-0.1,0c-0.3,0-0.6-0.1-0.8-0.2L10,4.7
					l0.1-0.2l0.2,0.1c0.3,0.1,0.5,0.1,0.8,0.2c0.3,0,0.5-0.2,0.6-0.4c0,0,0,0,0-0.1c0-0.2-0.1-0.4-0.4-0.5l-0.5-0.1
					C10.3,3.5,10,3.3,10,2.9c0-0.4,0.3-0.7,0.7-0.7c0,0,0.1,0,0.1,0c0.3,0,0.6,0.1,0.8,0.2l0.2,0.1l-0.1,0.2l-0.2-0.1
					c-0.2-0.1-0.5-0.1-0.8-0.2c-0.3,0-0.6,0.1-0.6,0.5c0,0.3,0.1,0.4,0.4,0.5L11.2,3.5z"/>
				<path class="st2" d="M13.3,4.9c-0.5,0.1-0.9-0.3-1-0.8c0-0.1,0-0.1,0-0.2V2.2h0.2v1.7c0,0.4,0.3,0.8,0.8,0.8
					c0.4,0,0.8-0.3,0.8-0.8c0,0,0,0,0,0V2.2h0.2v1.7c0,0.5-0.3,0.9-0.8,1C13.4,4.9,13.4,4.9,13.3,4.9z"/>
				<path class="st2" d="M15.1,4.9c-0.1,0-0.2-0.1-0.2-0.2c0,0,0,0,0,0V2.2h0.2v2.4h1.3v0.2L15.1,4.9z"/>
				<path class="st2" d="M17.2,2.4v2.4H17V2.4h-0.8V2.2h1.9v0.2H17.2z"/>
				<path class="st2" d="M19.4,4.9c-0.7,0-1.2-0.5-1.2-1.3c-0.1-0.6,0.4-1.2,1-1.3c0.1,0,0.1,0,0.2,0c0.7,0,1.2,0.5,1.2,1.3
					c0.1,0.6-0.4,1.2-1,1.3C19.5,4.9,19.4,4.9,19.4,4.9z M19.4,2.4c-0.6,0-1,0.4-1,1.1s0.4,1.1,1,1.1c0.6,0,0.9-0.4,0.9-1.1
					S20,2.4,19.4,2.4L19.4,2.4z"/>
				<path class="st2" d="M22.7,4.9l-0.5-1.1h-0.9v1.1H21V2.4c0-0.1,0.1-0.2,0.2-0.2c0,0,0,0,0,0h0.9c0.3,0,0.7,0.2,0.7,0.6
					c0,0,0,0.1,0,0.1c0,0.2-0.1,0.4-0.2,0.5l-0.2,0.3l0.5,1.2L22.7,4.9z M22.1,2.4h-0.8v1.2h1l0.2-0.2c0.1-0.1,0.2-0.3,0.2-0.4
					c0-0.2-0.1-0.5-0.4-0.5C22.2,2.4,22.1,2.4,22.1,2.4L22.1,2.4z"/>
				<path class="st2" d="M23.3,4.9V2.2h0.2v2.6H23.3z"/>
				<path class="st2" d="M25.9,4.9l-0.2-0.6h-1.3l-0.2,0.6h-0.2l1-2.5c0-0.1,0.1-0.1,0.2-0.1c0.1,0,0.2,0,0.2,0.1l0.9,2.5H25.9z
					 M25.1,2.4L24.4,4h1.2L25.1,2.4z"/>
			</g>
			<g transform="translate(1.563)">
				<g transform="translate(8.255)">
					<path class="st2" d="M13.8,26.8C13.8,26.8,13.8,26.8,13.8,26.8h-3.2v-0.3h3.2c0,0,0,0,0,0c1.1,0,2-0.9,2-2v-5.4
						c0-0.3,0-0.6,0-0.8c-0.2-2.3-1.6-4.4-3.6-5.5c-1.7,2.8-5.4,3.8-8.2,2.1c-1-0.5-1.8-1.3-2.3-2.3l0.3-0.2
						c0.5,0.9,1.3,1.7,2.2,2.2c2.8,1.6,6.3,0.6,7.9-2.2l0.1-0.1l0.1,0.1c2.2,1.2,3.6,3.4,3.9,5.8c0,0.3,0,0.6,0,0.9v5.4
						c0,0.6-0.2,1.2-0.7,1.6C15,26.6,14.4,26.8,13.8,26.8z M7.2,26.8h-7.8l1.4-0.3c1.9-0.5,3.6-1.8,4.3-3.7L5.4,23
						c-0.7,1.6-2,2.9-3.6,3.5h5.4V26.8z"/>
					<path class="st2" d="M6.9,15.8c-1,0-2.1-0.3-3-0.8c-1-0.6-1.8-1.4-2.3-2.3c-0.5-0.9-0.8-2-0.8-3c0-1.6,0.6-3.2,1.8-4.3
						c1.2-1.2,2.7-1.8,4.3-1.8c0,0,0,0,0,0c3.3,0,6,2.7,6.1,6h0l0,0.2c0,1.1-0.3,2.1-0.8,3C11.1,14.6,9,15.8,6.9,15.8z M6.9,3.9
						C6.9,3.9,6.9,3.9,6.9,3.9c-1.5,0-3,0.6-4.1,1.7C1.7,6.6,1.1,8.1,1.1,9.6c0,1,0.3,2,0.7,2.8c0.5,0.9,1.3,1.7,2.2,2.2
						c2.8,1.6,6.3,0.6,7.8-2.1c0.5-0.8,0.7-1.8,0.8-2.7V9.6C12.6,6.4,10,3.9,6.9,3.9z"/>
				</g>
				<g transform="translate(10.923 12.337)">
					<path class="st3" d="M1.4,2.7C2,4.5,2.3,5.3,3.9,5.3h0.9c1.7,0,2-0.8,2.6-2.7l0,0C5.6,3.6,3.3,3.7,1.4,2.7L1.4,2.7z"/>
					<path class="st2" d="M1.8,3.7c-0.1-0.3-0.2-0.6-0.3-1C1,2.5,0.7,2.3,0.3,2c0,0,0,0,0,0.1c0.1,0.2,0.1,0.5,0.2,0.7
						c0,0.1,0,0.1,0.1,0.2h0c0,0,0,0.1,0,0.1c0,0.1,0.1,0.3,0.1,0.4 M2.5,5.8c0.1,0,0.1,0,0.2,0.1h0C3,6,3.3,6.1,3.6,6.1H4
						c0,0.1,0,2.6,0,2.7c0,1,0,1.9,0.5,2.4c0.6,0.5,1.5,0.7,2.3,0.6c0.8,0.1,1.5-0.2,2.1-0.7c0.5-0.7,0.7-1.5,0.6-2.3
						c0.8-0.2,1.3-1.1,1-1.9c-0.2-0.8-1.1-1.3-1.9-1C7.7,6.2,7.3,7,7.5,7.9c0.1,0.5,0.5,0.9,1.1,1c0.1,0.6,0,1.2-0.4,1.8
						c-0.4,0.3-1,0.5-1.5,0.4c-0.6,0.1-1.2-0.1-1.7-0.4c-0.3-0.3-0.3-0.9-0.3-1.8c0-0.1,0-2.6,0-2.7h0.4c2-0.2,2.5-1.6,3-3.3
						c0.1-0.2,0.1-0.5,0.2-0.7c0.1-0.2,0.1-0.3,0.1-0.5C8.2,1.9,7.8,2.2,7.4,2.5c0,0,0,0,0,0C6.8,4.4,6.5,5.3,4.8,5.3H3.9
						C3.5,5.3,3,5.2,2.6,4.9C2.2,4.6,2.5,5.8,2.5,5.8L2.5,5.8z M9,8.4c-0.5,0-1-0.4-1-1s0.4-1,1-1s1,0.4,1,1S9.5,8.4,9,8.4z"/>
					<path class="st2" d="M9.5,7.4C9.5,7.7,9.3,8,9,8c0,0,0,0,0,0C8.7,8,8.4,7.7,8.4,7.5c0-0.3,0.2-0.5,0.5-0.5c0,0,0,0,0,0
						C9.3,6.9,9.5,7.1,9.5,7.4C9.5,7.4,9.5,7.4,9.5,7.4z"/>
				</g>
				<g transform="translate(0 13.9)">
					<path class="st2" d="M21,16.4C20.9,16.4,20.9,16.4,21,16.4l-6.3-4c-0.1,0-0.1-0.1,0-0.2l1-1.6c0,0,0.1-0.1,0.1-0.1
						c0,0,0.1,0,0.1,0l6.2,4c0,0,0.1,0.1,0.1,0.1s0,0.1,0,0.1l-1,1.6C21.1,16.4,21,16.4,21,16.4z M15,12.2l6,3.8l0.8-1.3l-6-3.8
						L15,12.2z"/>
					<path class="st2" d="M7.4,11.9c-2.5,0-4.7-1.7-5.3-4.2C1.8,6.3,2,4.9,2.8,3.7s2-2.1,3.4-2.4c0,0,0.1,0,0.1,0
						c0.3-0.1,0.6-0.1,0.9-0.1c3-0.1,5.5,2.2,5.6,5.1c0.1,2.6-1.7,5-4.2,5.5l0-0.2l0,0.2C8.2,11.9,7.8,11.9,7.4,11.9z M7.4,1.4
						c-0.1,0-0.2,0-0.2,0c-0.3,0-0.6,0-0.8,0.1c0,0-0.1,0-0.1,0C4.9,1.9,3.8,2.7,3.1,3.8S2.1,6.4,2.4,7.7c0.6,2.7,3.4,4.4,6.1,3.8
						c0,0,0,0,0,0h0c2.4-0.5,4.1-2.7,3.9-5.2C12.4,3.6,10.1,1.4,7.4,1.4z"/>
					<path class="st2" d="M15.2,11.7C15.2,11.7,15.2,11.6,15.2,11.7l-2.4-1.5c-0.1,0-0.1-0.1,0-0.2c0-0.1,0.1-0.1,0.2,0l2.3,1.5
						c0.1,0,0.1,0.1,0,0.2C15.3,11.6,15.3,11.7,15.2,11.7z"/>
					<path class="st2" d="M7.4,11.9c-2.5,0-4.7-1.7-5.3-4.2C1.8,6.3,2,4.9,2.8,3.7s2-2.1,3.4-2.4c0,0,0.1,0,0.1,0
						c0.3-0.1,0.6-0.1,0.9-0.1c3-0.1,5.5,2.2,5.6,5.1c0.1,2.6-1.7,5-4.2,5.5l0-0.2l0,0.2C8.2,11.9,7.8,11.9,7.4,11.9z M7.4,1.4
						c-0.1,0-0.2,0-0.2,0c-0.3,0-0.6,0-0.8,0.1c0,0-0.1,0-0.1,0C4.9,1.9,3.8,2.7,3.1,3.8S2.1,6.4,2.4,7.7c0.6,2.7,3.4,4.4,6.1,3.8
						c0,0,0,0,0,0h0c2.4-0.5,4.1-2.7,3.9-5.2C12.4,3.6,10.1,1.4,7.4,1.4z"/>
					<path class="st2" d="M11.3,5.8c-0.1,0-0.1-0.1-0.2-0.1c-0.4-2-2.5-3.3-4.5-2.9c-0.1,0-0.2-0.1-0.2-0.2c0-0.1,0.1-0.1,0.1-0.2
						c0,0,0,0,0,0C8.8,2,11,3.4,11.4,5.6C11.5,5.7,11.4,5.8,11.3,5.8C11.3,5.8,11.3,5.8,11.3,5.8z"/>
				</g>
			</g>
			<path class="st2" d="M9,27.1c-0.4,0-0.8,0-1.3-0.1c-3.6-0.7-6-4.2-5.3-7.9c0.5-2.6,2.5-4.7,5.2-5.3c0.4-0.1,0.7-0.1,1.1-0.1
				c1.8-0.1,3.5,0.5,4.8,1.7c1.3,1.2,2.1,2.9,2.2,4.7c0.2,3.3-2.1,6.2-5.3,6.9C10,27.1,9.5,27.1,9,27.1z M9,14.1c-0.1,0-0.2,0-0.3,0
				c-0.4,0-0.7,0.1-1,0.1c-2.5,0.5-4.4,2.5-4.9,5c-0.7,3.4,1.6,6.7,5,7.4c0.9,0.2,1.7,0.2,2.6,0h0c3-0.7,5.1-3.4,5-6.5
				c-0.1-1.7-0.8-3.2-2.1-4.4C12.1,14.7,10.6,14.1,9,14.1z"/>
		</g>
	</g>
</g>
</svg>
