<?xml version="1.0" encoding="utf-8"?>
<!-- Generator: Adobe Illustrator 23.0.1, SVG Export Plug-In . SVG Version: 6.00 Build 0)  -->
<svg version="1.1" id="Layer_1" xmlns="http://www.w3.org/2000/svg" xmlns:xlink="http://www.w3.org/1999/xlink" x="0px" y="0px"
	 viewBox="0 0 58.6 64.6" style="enable-background:new 0 0 58.6 64.6;" xml:space="preserve">
<style type="text/css">
	.st0{clip-path:url(#SVGID_2_);}
	.st1{fill:#E06539;}
	.st2{fill:#FFFFFF;}
</style>
<g>
	<defs>
		<rect id="SVGID_1_" x="5" y="5.6" width="48.5" height="53.4"/>
	</defs>
	<clipPath id="SVGID_2_">
		<use xlink:href="#SVGID_1_"  style="overflow:visible;"/>
	</clipPath>
	<g class="st0">
		<path class="st1" d="M5,23v18.5c0,2.9,1.6,5.6,4.1,7.1l16,9.3c2.5,1.5,5.7,1.5,8.2,0l16-9.3c2.5-1.5,4.1-4.2,4.1-7.1V23
			c0-2.9-1.6-5.6-4.1-7.1l-16-9.3c-2.5-1.5-5.7-1.5-8.2,0l-16,9.3C6.6,17.4,5,20.1,5,23z"/>
		<g transform="translate(13.629 12.181)">
			<g transform="translate(6.181 34.731)">
				<path class="st2" d="M2.8-2.5c0.2,0,0.5,0.1,0.7,0.1l0.2,0.1l0,0.2L3.4-2.2C3.2-2.2,3-2.3,2.8-2.3c-0.6,0-0.9,0.3-0.9,1.1
					S2.2,0,2.8,0c0.2,0,0.4-0.1,0.6-0.1l0.2-0.1l0,0.2L3.5,0C3.2,0.1,3,0.2,2.8,0.2c-0.7,0-1.2-0.4-1.2-1.3C1.6-2.1,2.1-2.5,2.8-2.5
					z"/>
				<path class="st2" d="M5,0.2c-0.7,0-1.2-0.5-1.2-1.3c-0.1-0.6,0.4-1.2,1-1.3c0.1,0,0.1,0,0.2,0c0.7,0,1.2,0.5,1.2,1.3
					c0.1,0.6-0.4,1.2-1,1.3C5.2,0.2,5.1,0.2,5,0.2z M5-2.3c-0.6,0-1,0.4-1,1.1S4.5,0,5,0S6-0.4,6-1.2C6-1.9,5.6-2.3,5-2.3z"/>
				<path class="st2" d="M6.9,0.1H6.7v-2.5c0-0.1,0-0.2,0.1-0.2c0,0,0,0,0,0c0.1,0,0.1,0,0.2,0.1l1.4,2.3v-2.3h0.2V0
					c0,0.1,0,0.2-0.1,0.2c0,0,0,0,0,0c-0.1,0-0.1,0-0.2-0.1L6.9-2.2L6.9,0.1z"/>
				<path class="st2" d="M10.2-2.3v2.4H10v-2.4H9.1v-0.2H11v0.2H10.2z"/>
				<path class="st2" d="M12.8,0.1l-0.2-0.6h-1.3l-0.2,0.6h-0.2l1-2.5c0-0.1,0.1-0.1,0.2-0.1c0.1,0,0.2,0,0.2,0.1l0.9,2.5H12.8z
					 M12-2.3l-0.6,1.6h1.2L12-2.3z"/>
				<path class="st2" d="M14.4-2.5c0.2,0,0.5,0.1,0.7,0.1l0.2,0.1l0,0.2L15-2.2c-0.2-0.1-0.4-0.1-0.6-0.1c-0.6,0-0.9,0.3-0.9,1.1
					S13.8,0,14.4,0c0.2,0,0.4-0.1,0.6-0.1l0.2-0.1l0,0.2L15.1,0c-0.2,0.1-0.4,0.1-0.7,0.1c-0.7,0-1.2-0.4-1.2-1.3
					C13.2-2.1,13.7-2.5,14.4-2.5z"/>
				<path class="st2" d="M16.6-2.3v2.4h-0.2v-2.4h-0.8v-0.2h1.9v0.2H16.6z"/>
				<path class="st2" d="M4,1.7c0.2,0,0.5,0.1,0.7,0.1l0.2,0l0,0.2L4.6,2.1C4.4,2,4.2,2,4,2C3.4,2,3.1,2.3,3.1,3.1S3.5,4.2,4,4.2
					c0.2,0,0.4-0.1,0.6-0.1L4.8,4l0,0.2L4.7,4.3C4.5,4.4,4.2,4.4,4,4.4C3.3,4.4,2.9,4,2.9,3.1C2.8,2.2,3.4,1.7,4,1.7z"/>
				<path class="st2" d="M5.5,4.4c-0.1,0-0.2-0.1-0.2-0.2c0,0,0,0,0,0V2c0-0.1,0.1-0.2,0.2-0.2c0,0,0,0,0,0h1.4V2H5.5v1h1.3v0.2H5.5
					v1h1.4v0.2L5.5,4.4z"/>
				<path class="st2" d="M7.6,4.4H7.4V1.9c0-0.1,0.1-0.2,0.1-0.2c0,0,0,0,0,0c0.1,0,0.1,0,0.2,0.1l1.4,2.3V1.8h0.2v2.5
					c0,0.1,0,0.2-0.1,0.2c0,0,0,0,0,0c-0.1,0-0.1,0-0.2-0.1L7.6,2V4.4z"/>
				<path class="st2" d="M10.9,2v2.4h-0.2V2H9.8V1.8h1.9V2H10.9z"/>
				<path class="st2" d="M12.4,4.4c-0.1,0-0.2-0.1-0.2-0.2c0,0,0,0,0,0V2c0-0.1,0.1-0.2,0.2-0.2c0,0,0,0,0,0h1.4V2h-1.4v1h1.3v0.2
					h-1.3v1h1.4v0.2L12.4,4.4z"/>
				<path class="st2" d="M16,4.4l-0.5-1.1h-0.9v1.1h-0.2V2c0-0.1,0.1-0.2,0.2-0.2c0,0,0,0,0,0h0.9c0.3,0,0.7,0.2,0.7,0.6
					c0,0,0,0.1,0,0.1c0,0.2-0.1,0.4-0.2,0.5l-0.2,0.3l0.5,1.2H16z M15.4,1.9h-0.8v1.2h1l0.2-0.2c0.1-0.1,0.2-0.3,0.2-0.4
					c0-0.2-0.1-0.5-0.4-0.5C15.4,1.9,15.4,1.9,15.4,1.9z"/>
			</g>
			<path class="st2" d="M19.7,30c-3.8,0-8-2.2-11.6-6c-3.8-3.8-5.8-8.3-5.5-12.2l0-0.1l0,0c0.3-0.4,0.6-0.7,0.8-0.9
				c0.6-0.6,1.3-1.1,2-1.6l0.2-0.1l0.1,0.2c1.1,1.7,2.3,3.4,3.6,5l0.1,0.1l-0.1,0.1c0,0-0.1,0.1-0.1,0.1l-1.6,1.1
				c-0.4,0.4-0.5,1-0.1,1.5c0.5,0.7,2.4,2.9,3.6,4.2c1.2,1.2,3.4,3.1,4.1,3.6c0.4,0.4,1.1,0.3,1.5-0.1l0.4-0.5
				c0.2-0.3,0.4-0.7,0.7-1c0,0,0.1-0.1,0.1-0.1l0.1-0.1l0.1,0.1c1.6,1.3,3.2,2.6,4.9,3.7l0.2,0.1L23,27.1c-0.5,0.7-1,1.4-1.6,2
				c-0.3,0.3-0.6,0.6-0.9,0.8l0,0l-0.1,0C20.1,30,19.9,30,19.7,30z M2.9,11.9C2.7,15.7,4.6,20,8.3,23.7c3.7,3.9,8.2,6.1,12,5.9
				c0.3-0.2,0.6-0.5,0.8-0.8c0.5-0.5,1-1.1,1.4-1.8c-1.6-1.1-3.1-2.2-4.6-3.5c-0.2,0.3-0.4,0.6-0.6,0.9L17,25
				c-0.5,0.6-1.4,0.7-2,0.2c-0.7-0.5-2.8-2.5-4.1-3.7c-1.2-1.3-3.1-3.5-3.6-4.2c-0.5-0.6-0.4-1.5,0.2-2l1.5-1
				c-1.2-1.5-2.4-3.1-3.4-4.7c-0.6,0.4-1.2,0.9-1.7,1.4C3.4,11.3,3.2,11.6,2.9,11.9z"/>
			<g transform="translate(11.491 6.66)">
				<path class="st2" d="M5.8,12.5H0.5l0-0.2c0-1,0.4-2,1-2.9C2,8.7,2.8,8.2,3.6,7.6c1-0.7,2-1.4,2-2.2V5.1c0-1.2-1-2.3-2.2-2.3
					c-0.6,0-1.2,0.2-1.6,0.7c-0.4,0.4-0.7,1-0.6,1.6l-0.4,0c0-0.7,0.3-1.4,0.8-1.9C2,2.7,2.7,2.4,3.4,2.4C4.8,2.4,6,3.6,6,5.1v0.3
					C6,6.4,5,7.1,3.8,7.9C3.1,8.5,2.3,9,1.9,9.7c-0.5,0.7-0.9,1.6-0.9,2.4h4.8V12.5z"/>
				<rect x="10.4" y="2.3" class="st2" width="0.4" height="10.5"/>
				<polygon class="st2" points="12.3,10 6.2,10 6,9.7 10.4,2.5 10.7,2.7 6.6,9.6 12.3,9.6 				"/>
			</g>
			<g transform="translate(5.976)">
				<path class="st2" d="M1.8,7.3L1.5,7c0.1-0.1,0.1-0.1,0.2-0.2l0.1-0.1L2.1,7L2,7.1C1.9,7.1,1.9,7.2,1.8,7.3z"/>
				<path class="st2" d="M20,24l-0.3-0.3c0.1-0.1,0.2-0.2,0.2-0.3l0.3,0.2C20.2,23.8,20.1,23.9,20,24z M20.5,23.4l-0.3-0.2
					c0.1-0.1,0.2-0.2,0.2-0.3l0.3,0.2C20.6,23.1,20.6,23.2,20.5,23.4z M20.9,22.7l-0.3-0.2c0.1-0.1,0.1-0.2,0.2-0.3l0.4,0.2
					C21.1,22.4,21,22.6,20.9,22.7z M21.3,22L21,21.8c0.1-0.1,0.1-0.2,0.2-0.3l0.4,0.2C21.5,21.7,21.4,21.8,21.3,22z M21.7,21.2
					l-0.4-0.2c0.1-0.1,0.1-0.2,0.2-0.4l0.4,0.2C21.8,21,21.7,21.1,21.7,21.2z M22,20.5l-0.4-0.1c0-0.1,0.1-0.2,0.1-0.4l0.4,0.1
					C22.1,20.2,22.1,20.4,22,20.5z M22.3,19.7l-0.4-0.1c0-0.1,0.1-0.3,0.1-0.4l0.4,0.1C22.3,19.5,22.3,19.6,22.3,19.7z M22.5,18.9
					l-0.4-0.1c0-0.1,0.1-0.3,0.1-0.4l0.4,0.1C22.5,18.7,22.5,18.8,22.5,18.9z M22.6,18.1l-0.4-0.1c0-0.1,0-0.3,0.1-0.4l0.4,0.1
					C22.7,17.9,22.7,18,22.6,18.1z M22.8,17.3l-0.4,0c0-0.1,0-0.3,0-0.4l0.4,0C22.8,17.1,22.8,17.2,22.8,17.3z M22.8,16.5l-0.4,0
					c0-0.1,0-0.3,0-0.4l0.4,0C22.8,16.2,22.8,16.4,22.8,16.5z M22.4,15.7c0-0.1,0-0.3,0-0.4l0.4,0c0,0.1,0,0.3,0,0.4L22.4,15.7z
					 M22.4,14.9c0-0.1,0-0.3,0-0.4l0.4,0c0,0.1,0,0.3,0,0.4L22.4,14.9z M22.3,14.1c0-0.1,0-0.3-0.1-0.4l0.4-0.1c0,0.1,0,0.3,0.1,0.4
					L22.3,14.1z M22.2,13.4c0-0.1-0.1-0.3-0.1-0.4l0.4-0.1c0,0.1,0.1,0.3,0.1,0.4L22.2,13.4z M22,12.6c0-0.1-0.1-0.3-0.1-0.4
					l0.4-0.1c0,0.1,0.1,0.3,0.1,0.4L22,12.6z M21.7,11.8c0-0.1-0.1-0.2-0.1-0.4l0.4-0.1c0,0.1,0.1,0.3,0.1,0.4L21.7,11.8z
					 M21.5,11.1c-0.1-0.1-0.1-0.2-0.2-0.4l0.4-0.2c0.1,0.1,0.1,0.2,0.2,0.4L21.5,11.1z M21.1,10.4c-0.1-0.1-0.1-0.2-0.2-0.4l0.4-0.2
					c0.1,0.1,0.1,0.2,0.2,0.4L21.1,10.4z M20.7,9.7c-0.1-0.1-0.1-0.2-0.2-0.3l0.3-0.2C21,9.2,21,9.4,21.1,9.5L20.7,9.7z M20.3,9
					c-0.1-0.1-0.1-0.2-0.2-0.3l0.3-0.2c0.1,0.1,0.2,0.2,0.2,0.3L20.3,9z M19.9,8.4c-0.1-0.1-0.2-0.2-0.2-0.3l0.3-0.3
					C20,7.9,20.1,8,20.2,8.1L19.9,8.4z M19.4,7.8c-0.1-0.1-0.2-0.2-0.3-0.3l0.3-0.3c0.1,0.1,0.2,0.2,0.3,0.3L19.4,7.8z M18.8,7.2
					c-0.1-0.1-0.2-0.2-0.3-0.3l0.3-0.3c0.1,0.1,0.2,0.2,0.3,0.3L18.8,7.2z M18.3,6.6c-0.1-0.1-0.2-0.2-0.3-0.3l0.3-0.3
					c0.1,0.1,0.2,0.2,0.3,0.3L18.3,6.6z M2.7,6.4L2.4,6.1C2.5,6,2.6,6,2.7,5.9L3,6.2C2.9,6.3,2.8,6.4,2.7,6.4z M17.6,6.1
					c-0.1-0.1-0.2-0.2-0.3-0.2l0.2-0.3c0.1,0.1,0.2,0.2,0.3,0.2L17.6,6.1z M3.3,6L3.1,5.6c0.1-0.1,0.2-0.2,0.3-0.2l0.2,0.3
					C3.5,5.8,3.4,5.9,3.3,6z M17,5.7c-0.1-0.1-0.2-0.1-0.3-0.2l0.2-0.3c0.1,0.1,0.2,0.1,0.3,0.2L17,5.7z M4,5.5L3.7,5.2
					C3.9,5.1,4,5,4.1,5l0.2,0.4C4.2,5.4,4.1,5.4,4,5.5z M16.3,5.3c-0.1-0.1-0.2-0.1-0.3-0.2l0.2-0.4c0.1,0.1,0.2,0.1,0.4,0.2
					L16.3,5.3z M4.6,5.1L4.5,4.7c0.1-0.1,0.2-0.1,0.4-0.2L5,4.9C4.9,5,4.8,5,4.6,5.1z M15.6,4.9c-0.1-0.1-0.2-0.1-0.4-0.2l0.2-0.4
					c0.1,0.1,0.2,0.1,0.4,0.2L15.6,4.9z M5.4,4.8L5.2,4.4c0.1-0.1,0.2-0.1,0.4-0.2l0.2,0.4C5.6,4.6,5.5,4.7,5.4,4.8z M14.9,4.6
					c-0.1-0.1-0.2-0.1-0.4-0.1L14.7,4c0.1,0,0.3,0.1,0.4,0.1L14.9,4.6z M6.1,4.4L5.9,4.1C6.1,4,6.2,4,6.3,3.9l0.1,0.4
					C6.3,4.4,6.2,4.4,6.1,4.4z M14.2,4.3c-0.1,0-0.2-0.1-0.4-0.1l0.1-0.4c0.1,0,0.3,0.1,0.4,0.1L14.2,4.3z M6.8,4.2L6.7,3.8
					c0.1,0,0.3-0.1,0.4-0.1l0.1,0.4C7.1,4.1,7,4.1,6.8,4.2z M13.4,4.1C13.3,4,13.2,4,13.1,4l0.1-0.4c0.1,0,0.3,0.1,0.4,0.1L13.4,4.1
					z M7.6,4L7.5,3.6c0.1,0,0.3-0.1,0.4-0.1L8,3.9C7.8,3.9,7.7,4,7.6,4z M12.7,3.9c-0.1,0-0.3,0-0.4-0.1l0.1-0.4
					c0.1,0,0.3,0,0.4,0.1L12.7,3.9z M8.4,3.8L8.3,3.4c0.1,0,0.3,0,0.4-0.1l0.1,0.4C8.6,3.8,8.5,3.8,8.4,3.8z M11.9,3.8
					c-0.1,0-0.3,0-0.4,0l0-0.4c0.1,0,0.3,0,0.4,0L11.9,3.8z M9.1,3.7l0-0.4c0.1,0,0.3,0,0.4,0l0,0.4C9.4,3.7,9.3,3.7,9.1,3.7z
					 M11.1,3.7c-0.1,0-0.3,0-0.4,0l0-0.4c0.1,0,0.3,0,0.4,0L11.1,3.7z M9.9,3.7l0-0.4c0.1,0,0.3,0,0.4,0v0.4
					C10.2,3.7,10.1,3.7,9.9,3.7z"/>
				<path class="st2" d="M19.2,24.9l-0.3-0.3c0.1-0.1,0.2-0.2,0.3-0.3l0.3,0.3C19.4,24.7,19.3,24.8,19.2,24.9z"/>
			</g>
		</g>
	</g>
</g>
</svg>
