<?xml version="1.0" encoding="utf-8"?>
<!-- Generator: Adobe Illustrator 23.0.1, SVG Export Plug-In . SVG Version: 6.00 Build 0)  -->
<svg version="1.1" id="Layer_1" xmlns="http://www.w3.org/2000/svg" xmlns:xlink="http://www.w3.org/1999/xlink" x="0px" y="0px"
	 viewBox="0 0 58.6 64.6" style="enable-background:new 0 0 58.6 64.6;" xml:space="preserve">
<style type="text/css">
	.st0{clip-path:url(#SVGID_2_);}
	.st1{fill:#67418B;}
	.st2{fill:#FFFFFF;}
</style>
<g>
	<defs>
		<rect id="SVGID_1_" x="4" y="4.4" width="50.5" height="55.7"/>
	</defs>
	<clipPath id="SVGID_2_">
		<use xlink:href="#SVGID_1_"  style="overflow:visible;"/>
	</clipPath>
	<g class="st0">
		<path class="st1" d="M4,22.6v19.3c0,3.1,1.6,5.9,4.3,7.4L25,59c2.6,1.5,5.9,1.5,8.6,0l16.7-9.6c2.6-1.5,4.3-4.4,4.3-7.4V22.6
			c0-3.1-1.6-5.9-4.3-7.4L33.6,5.6C30.9,4,27.6,4,25,5.6L8.3,15.2C5.6,16.7,4,19.6,4,22.6z"/>
		<g transform="translate(11.05 14.399)">
			<g transform="translate(10.63 31.69)">
				<path class="st2" d="M2.3-0.5c0.4,0.1,0.6,0.3,0.6,0.7c0,0.4-0.3,0.8-0.7,0.8c0,0-0.1,0-0.1,0c-0.3,0-0.6-0.1-0.9-0.2L1,0.7
					l0.1-0.2l0.2,0.1c0.3,0.1,0.5,0.2,0.8,0.2c0.3,0,0.6-0.2,0.6-0.5c0,0,0,0,0-0.1c0-0.3-0.1-0.4-0.5-0.5L1.7-0.4
					C1.3-0.5,1.1-0.7,1.1-1.1c0-0.4,0.3-0.8,0.7-0.8c0,0,0.1,0,0.1,0c0.3,0,0.6,0.1,0.9,0.2l0.2,0.1L2.8-1.4L2.7-1.5
					C2.4-1.6,2.2-1.6,1.9-1.7c-0.3,0-0.6,0.1-0.6,0.5c0,0.3,0.1,0.4,0.5,0.5L2.3-0.5z"/>
				<path class="st2" d="M3.4-0.5c-0.1-0.7,0.4-1.3,1-1.4c0.1,0,0.1,0,0.2,0c0.3,0,0.5,0.1,0.7,0.1l0.2,0.1l0,0.2L5.3-1.5
					C5.1-1.6,4.8-1.6,4.6-1.6c-0.6,0-1,0.4-1,1.2s0.4,1.2,1,1.2c0.2,0,0.5,0,0.7-0.1v-0.8H4.6v-0.2h0.7c0.1,0,0.2,0.1,0.2,0.2
					c0,0,0,0,0,0v0.8c0,0.1-0.1,0.2-0.2,0.2C5.1,0.9,4.9,0.9,4.6,0.9C4,1,3.4,0.4,3.3-0.2C3.3-0.3,3.3-0.4,3.4-0.5z"/>
				<path class="st2" d="M7.1,0.9c-0.5,0.1-1-0.3-1-0.8C6,0,6,0,6.1-0.1v-1.8h0.2v1.8c0,0.4,0.4,0.8,0.8,0.8c0.4,0,0.8-0.4,0.8-0.8
					c0,0,0,0,0,0v-1.8h0.2v1.8c0,0.5-0.3,1-0.8,1C7.2,0.9,7.2,0.9,7.1,0.9z"/>
				<path class="st2" d="M11.3-1.1c0,0.4-0.2,0.7-0.5,0.9L9.8,0.7h1.4v0.2H9.7c-0.1,0-0.1-0.1-0.2-0.1c0,0,0,0,0,0
					c0-0.1,0-0.1,0.1-0.2l1-0.9C10.9-0.5,11-0.8,11-1.1c0-0.4-0.3-0.5-0.6-0.5c-0.2,0-0.5,0.1-0.7,0.1l-0.1,0l0-0.2l0.1,0
					c0.2-0.1,0.5-0.1,0.7-0.1c0.4-0.1,0.8,0.2,0.8,0.6C11.3-1.2,11.3-1.2,11.3-1.1z"/>
				<path class="st2" d="M11.9,0.9c-0.1,0-0.2-0.1-0.2-0.2c0,0,0,0,0,0c0-0.1,0.1-0.2,0.2-0.2C12,0.6,12,0.7,12,0.8
					C12,0.8,12,0.9,11.9,0.9z"/>
				<path class="st2" d="M14.2,0c0,0.6-0.3,0.9-0.8,0.9c-0.4,0-0.8-0.3-0.8-0.7c0-0.1,0-0.1,0-0.2v-1c-0.1-0.4,0.2-0.8,0.7-0.9
					c0.1,0,0.1,0,0.2,0c0.5,0,0.8,0.3,0.8,0.9V0z M13.9-1c0-0.4-0.2-0.7-0.6-0.7S12.7-1.4,12.7-1v1c0,0.4,0.2,0.7,0.6,0.7
					s0.6-0.2,0.6-0.7L13.9-1z"/>
			</g>
			<path class="st2" d="M33.6,22.7c0-0.5-0.3-1-0.8-1.2l0,0c-0.2-0.1-0.3-0.2-0.5-0.3L32.2,21c-0.1-0.1-0.1-0.2-0.1-0.3
				c0.4-1.6-0.3-3.4-1.7-4.3l0.1,0c0.3,0.1,0.5,0.3,0.8,0.5l0.1,0c0.3,0.2,0.7,0.3,1,0.2c0.5-0.1,1-0.9,1.1-1
				c0.7-1.1-0.9-2.5-1.5-2.9c-0.1-0.1-0.1-0.2-0.2-0.4c-0.1-0.4-0.3-0.7-0.5-1.1c-0.3-0.3-0.7-0.6-1.1-0.7c0-0.1,0-0.1,0-0.2
				c0-0.1,0.1-0.2,0.1-0.3c0.1-0.2,0.1-0.4,0.1-0.6c0-0.2-0.1-0.3-0.3-0.4c-0.4-0.1-0.8,0-1.1,0.2c-0.7,0.3-1.2,0.8-1.6,1.4
				c-1.7,0.8-2.9,2.5-2.9,4.4c0.1,1.1,0.3,2.3,0.7,3.3c0.3,0.7,0.4,1.4,0.3,2.1c0,0.1-0.1,0.2-0.5,0.4l0,0l0,0
				c-0.2,0.1-0.4,0.3-0.6,0.5c-0.1-0.1-0.2-0.1-0.3-0.1c0-0.4,0-0.8-0.2-1.2c-0.3-0.7-0.9-1.3-1.6-1.6l0,0c-0.4-0.1-0.9-0.9-1-4.6
				c0-0.1,0-0.1,0-0.2h0.4c0.8,0,1.4-0.6,1.4-1.4c0-0.8-0.6-1.4-1.4-1.4h-0.1l0.7-4.7c0-0.3-0.1-0.5-0.4-0.6c-0.1,0-0.1,0-0.2,0
				l-0.1,0c-0.1-1-0.7-1.9-1.6-2.4c-0.1-0.8-0.8-1.4-1.5-1.3c-0.7,0.1-1.2,0.6-1.3,1.3c-0.9,0.5-1.5,1.4-1.6,2.4l-0.1,0
				c-0.3,0-0.5,0.1-0.6,0.4c0,0.1,0,0.1,0,0.2l0.7,4.7h-0.1c-0.8,0-1.4,0.6-1.4,1.4c0,0.8,0.6,1.4,1.4,1.4h0.4c0,0.1,0,0.2,0,0.2
				c0,1.2-0.1,4-1.1,4.6c-0.7,0.3-1.3,0.8-1.6,1.6c-0.2,0.4-0.2,0.8-0.2,1.2c-0.1,0-0.2,0.1-0.3,0.1c0-0.2-0.1-0.3-0.1-0.5l0,0
				c-0.3-0.6-0.8-1.1-1.4-1.3l0,0c-0.2-0.1-0.7-0.7-0.8-3.7v-0.1h0.2c0.7,0,1.3-0.6,1.3-1.3c0-0.5-0.3-0.9-0.7-1.1
				c0.6-1.7-0.3-3.6-2-4.2c-1.7-0.6-3.6,0.3-4.2,2c-0.3,0.7-0.3,1.5,0,2.2C4,14.3,3.7,15,4,15.7c0.2,0.4,0.7,0.7,1.2,0.7h0.2
				c0,0,0,0.1,0,0.1c0,0.9-0.1,3.2-0.9,3.7C4,20.5,3.5,21,3.2,21.6c-0.1,0.3-0.2,0.6-0.1,0.9c-0.3,0.1-0.6,0.4-0.6,0.7v2.3
				c0,0.4,0.3,0.7,0.7,0.7h9.1c0.1,0,0.2,0,0.3-0.1c0.1,0,0.2,0.1,0.3,0.1H24c0.1,0,0.2,0,0.3-0.1c0.1,0,0.2,0.1,0.3,0.1h8.7
				c0.4,0,0.7-0.3,0.7-0.7v-2.2C34,23.1,33.8,22.8,33.6,22.7z M25.4,22.4L25.4,22.4L25.4,22.4c0.5-0.2,0.9-0.6,1.1-1.1
				c0.1-0.9,0-1.8-0.4-2.7c-0.3-1-0.6-2-0.6-3c0-1.6,1-2.9,2.4-3.5c0.1,0,0.2-0.1,0.3-0.2c0.3-0.4,0.6-0.8,1.1-1
				c0,0.1-0.1,0.3-0.1,0.5c0,0.3,0.1,0.5,0.4,0.6l0.1,0c0.3,0,0.7,0.2,0.9,0.4c0.2,0.2,0.3,0.5,0.3,0.7c0.1,0.4,0.3,0.7,0.6,1
				c0.7,0.5,1.4,1.4,1.2,1.6c-0.1,0.2-0.3,0.4-0.5,0.6c-0.1,0-0.2,0-0.2,0c-0.1-0.1-0.9-0.8-1.5-0.7c-0.4,0.1-0.8,0-1.1-0.1
				c-0.2-0.1-0.4,0-0.5,0.1c-0.1,0.1-0.2,0.3-0.2,0.5c0.1,0.5,0.4,0.9,0.9,1.1c0.1,0.1,2.2,1.3,1.6,3.5c-0.1,0.4,0,0.9,0.3,1.2
				l0.1,0.1c0.2,0.2,0.5,0.4,0.8,0.6l0,0l0,0c0.1,0,0.2,0.1,0.2,0.2h-7.4C25.2,22.5,25.3,22.4,25.4,22.4L25.4,22.4z M15.8,7.2
				l0.9,0.2c0.1,0,0.2,0,0.3,0l1.4-0.7l1.4,0.7c0.1,0,0.2,0.1,0.3,0l0.9-0.2l-0.6,4.2h-4.1L15.8,7.2z M18.4,3.4
				c0.3,0,0.5,0.2,0.5,0.5s-0.2,0.5-0.5,0.5c-0.3,0-0.5-0.2-0.5-0.5c0,0,0,0,0,0C18,3.6,18.2,3.4,18.4,3.4
				C18.4,3.4,18.4,3.4,18.4,3.4L18.4,3.4z M17.3,4.7c0.5,0.6,1.3,0.8,2,0.3c0.1-0.1,0.2-0.2,0.3-0.3c0.5,0.4,0.9,0.9,0.9,1.6
				l-0.4,0.1l-1.5-0.7c-0.1-0.1-0.3-0.1-0.4,0l-1.5,0.7l-0.4-0.1C16.4,5.7,16.7,5.1,17.3,4.7L17.3,4.7z M14.8,12.9
				c0-0.2,0.2-0.5,0.5-0.5h6.3c0.2,0,0.5,0.2,0.5,0.5s-0.2,0.5-0.5,0.5h-6.3C15,13.3,14.8,13.1,14.8,12.9L14.8,12.9z M13.9,21.1
				c0.2-0.5,0.6-0.8,1.1-1c0,0,0.1,0,0.1-0.1c1.3-0.8,1.5-3.1,1.6-5.4c0-0.1,0-0.2,0-0.2h3.6c0,0.1,0,0.2,0,0.2
				c0,2.4,0.3,4.9,1.6,5.5l0,0l0,0c0.5,0.2,0.9,0.6,1.1,1c0.1,0.3,0.1,0.5,0.1,0.8h-9.3C13.8,21.6,13.8,21.3,13.9,21.1L13.9,21.1z
				 M7.8,10.6c1.3,0,2.3,1,2.3,2.3c0,0.3-0.1,0.7-0.2,1H5.7c-0.5-1.2,0-2.6,1.1-3.1C7.1,10.6,7.4,10.6,7.8,10.6L7.8,10.6z M4.9,15.1
				c0-0.2,0.1-0.3,0.3-0.3h5.2c0.2,0,0.3,0.1,0.3,0.3c0,0.2-0.1,0.3-0.3,0.3c0,0,0,0,0,0H5.2C5,15.4,4.9,15.3,4.9,15.1L4.9,15.1z
				 M4.1,21.9c0.2-0.4,0.5-0.7,0.9-0.8c0,0,0.1,0,0.1,0c1.1-0.7,1.3-2.6,1.3-4.5c0,0,0-0.1,0-0.1h2.8c0,0,0,0.1,0,0.1
				c0,2,0.2,4.1,1.4,4.6l0,0l0,0c0.4,0.2,0.7,0.4,0.8,0.8c0.1,0.2,0.1,0.4,0.1,0.6H4.1C4,22.3,4.1,22.1,4.1,21.9L4.1,21.9z
				 M3.5,23.5h8.6v1.8H3.5V23.5z M13.1,23.2v-0.4h10.7v2.4H13.1V23.2z M33,25.3h-8.2v-1.7H33L33,25.3z"/>
		</g>
	</g>
</g>
</svg>
