<svg xmlns="http://www.w3.org/2000/svg" xmlns:xlink="http://www.w3.org/1999/xlink" width="351.304" height="68.55" viewBox="0 0 351.304 68.55"><defs><style>.a,.i{fill:none;}.b{clip-path:url(#a);}.c{fill:#0096c6;}.d{fill:#205286;}.e,.f{fill:#4685c0;}.e,.g{fill-rule:evenodd;}.g,.h{fill:#a9c9e0;}.i{stroke:#a9c9e0;stroke-linecap:round;stroke-miterlimit:10;stroke-width:2.888px;}</style><clipPath id="a"><rect class="a" width="351.304" height="68.55"/></clipPath></defs><g class="b"><g transform="translate(247.534 7.743)"><path class="c" d="M384.544,18.022h4.206l-.305,2.069h-4.189l-.406,2.917h5.172l-.272,2h-7.886l1.662-11.872h7.886l-.288,2h-5.172Z" transform="translate(-374.044 -12.899)"/><path class="c" d="M409.829,25.009h-2.765l.153-9.09H407.1l-3.053,9.09h-3.7l-.526-9.09h-.135l-2.29,9.09h-2.764l.034-.22,3.307-11.651h4.054l.508,9.8h.034l3.256-9.8h3.935V24.788Z" transform="translate(-378.532 -12.899)"/><path class="c" d="M426.267,13.137c2.391,0,3.748,1.17,3.748,3.222,0,2.577-1.781,4.341-4.765,4.341h-1.815l-.593,4.308h-2.714l1.662-11.872ZM425.2,18.632a1.834,1.834,0,0,0,1.985-2.1c0-.95-.577-1.391-1.781-1.391h-1.187l-.492,3.494Z" transform="translate(-386.843 -12.899)"/><path class="c" d="M442.091,13.137c2.425,0,3.832,1.238,3.832,3.374a3.991,3.991,0,0,1-2.391,3.8l1.51,4.478-.017.22h-2.917L440.955,20.8h-1.78l-.577,4.206h-2.714l1.662-11.872Zm-1.136,5.613a1.962,1.962,0,0,0,2.137-2.137c0-1.018-.644-1.492-1.73-1.492h-1.39l-.509,3.629Z" transform="translate(-391.979 -12.899)"/><path class="c" d="M455.773,18.022h4.206l-.305,2.069h-4.189l-.407,2.917h5.172l-.271,2h-7.886l1.662-11.872h7.886l-.289,2H456.18Z" transform="translate(-397.263 -12.899)"/><path class="c" d="M467.15,22.417a11.41,11.41,0,0,0,3.138.458c1.255,0,2.018-.458,2.018-1.374,0-1.628-4.936-1.086-4.936-4.732,0-1.865,1.426-3.985,4.918-3.985a12.768,12.768,0,0,1,3.392.441l-.526,2.086a11.663,11.663,0,0,0-2.629-.339c-1.323,0-2.238.559-2.238,1.509,0,1.815,4.969,1.273,4.969,4.631,0,2.443-2,4.019-5.122,4.019a10.3,10.3,0,0,1-3.6-.644Z" transform="translate(-401.972 -12.784)"/><path class="c" d="M491.085,25.009h-2.9L487.9,22.5h-3.849l-1.018,2.51h-2.7l.034-.22,5.274-11.651h3.527l1.951,11.651Zm-4.054-9.9-2.119,5.257h2.73Z" transform="translate(-406.468 -12.899)"/><path class="c" d="M381.286,43.34c3.239,0,5.038,1.8,5.038,4.9,0,4.24-2.544,6.971-6.649,6.971H375.5l1.662-11.872Zm-1.56,9.87c2.374,0,3.816-1.679,3.816-4.918,0-2.069-1.018-2.952-2.883-2.952h-1.051l-1.1,7.87Z" transform="translate(-372.296 -22.745)"/><path class="c" d="M392.946,50.483c0-4.477,2.747-7.5,6.8-7.5,3.138,0,4.935,1.747,4.935,4.783,0,4.545-2.714,7.565-6.835,7.565A4.59,4.59,0,0,1,392.946,50.483Zm8.954-2.476c0-1.814-.966-2.951-2.509-2.951-2.036,0-3.68,2.086-3.68,5.19,0,1.814.983,3.018,2.476,3.018C400.306,53.264,401.9,51.3,401.9,48.007Z" transform="translate(-377.982 -22.63)"/><path class="c" d="M417.543,52.62a11.408,11.408,0,0,0,3.138.458c1.255,0,2.018-.458,2.018-1.374,0-1.628-4.935-1.086-4.935-4.732,0-1.865,1.425-3.985,4.918-3.985a12.763,12.763,0,0,1,3.392.441l-.525,2.086a11.673,11.673,0,0,0-2.629-.339c-1.322,0-2.238.559-2.238,1.51,0,1.814,4.969,1.272,4.969,4.63,0,2.443-2,4.02-5.121,4.02a10.3,10.3,0,0,1-3.6-.645Z" transform="translate(-385.801 -22.63)"/><path class="c" d="M434.823,55.212h-2.714l1.662-11.872h2.714Z" transform="translate(-390.748 -22.745)"/><path class="c" d="M440.321,52.62a11.408,11.408,0,0,0,3.138.458c1.256,0,2.019-.458,2.019-1.374,0-1.628-4.936-1.086-4.936-4.732,0-1.865,1.426-3.985,4.918-3.985a12.759,12.759,0,0,1,3.392.441l-.525,2.086a11.664,11.664,0,0,0-2.629-.339c-1.323,0-2.239.559-2.239,1.51,0,1.814,4.97,1.272,4.97,4.63,0,2.443-2,4.02-5.122,4.02a10.3,10.3,0,0,1-3.6-.645Z" transform="translate(-393.226 -22.63)"/><path class="c" d="M461.927,45.46l-1.357,9.752h-2.714l1.357-9.752h-3.646l.288-2.12h10.091l-.289,2.12Z" transform="translate(-398.395 -22.745)"/><path class="c" d="M474.5,48.225h4.207l-.306,2.069h-4.188L473.8,53.21h5.172l-.271,2h-7.887l1.662-11.872h7.886l-.288,2h-5.172Z" transform="translate(-403.367 -22.745)"/><path class="c" d="M499.784,55.212h-2.765l.153-9.09h-.119L494,55.212h-3.7l-.526-9.09h-.135l-2.29,9.09h-2.764l.034-.22,3.307-11.651h4.054l.508,9.8h.034l3.256-9.8h3.935V54.991Z" transform="translate(-407.855 -22.745)"/><path class="c" d="M519.451,55.212h-2.9l-.288-2.51h-3.849l-1.018,2.51h-2.7l.034-.22,5.274-11.651h3.528l1.95,11.651Zm-4.053-9.9-2.12,5.257h2.731Z" transform="translate(-415.715 -22.745)"/><path class="c" d="M380.683,81.124c-.441,3.019-2.238,4.529-5.512,4.529-2.8,0-4.426-1.306-4.426-3.562a6.578,6.578,0,0,1,.085-1.068l1.035-7.48h2.714l-1.018,7.412a4.623,4.623,0,0,0-.051.712c0,1.17.746,1.78,1.95,1.78a2.35,2.35,0,0,0,2.527-2.374l1.035-7.53h2.714Z" transform="translate(-370.745 -32.59)"/><path class="c" d="M398.017,85.432h-2.663l-3.613-7.5-1.034,7.48h-2.646l1.661-11.872h2.646l3.578,7.581,1.068-7.581h2.663Z" transform="translate(-376.39 -32.59)"/><path class="c" d="M409.2,85.415h-2.714l1.662-11.872h2.714Z" transform="translate(-382.396 -32.59)"/><path class="c" d="M428.6,85.415H425.84l.152-9.09h-.119l-3.053,9.09h-3.7l-.526-9.09h-.135l-2.289,9.09h-2.765l.034-.22,3.307-11.651H420.8l.509,9.8h.034l3.256-9.8h3.935V85.194Z" transform="translate(-384.652 -32.59)"/><path class="c" d="M442.583,78.428h4.207l-.306,2.069H442.3l-.407,2.917h5.172l-.271,2H438.9l1.662-11.872h7.886l-.288,2h-5.172Z" transform="translate(-392.963 -32.59)"/><path class="c" d="M459.209,73.543c3.239,0,5.037,1.8,5.037,4.9,0,4.24-2.544,6.971-6.649,6.971h-4.172l1.662-11.872Zm-1.56,9.87c2.375,0,3.816-1.679,3.816-4.918,0-2.07-1.018-2.952-2.883-2.952H457.53l-1.1,7.869Z" transform="translate(-397.697 -32.59)"/><path class="c" d="M476.664,82.823a11.408,11.408,0,0,0,3.138.458c1.256,0,2.018-.458,2.018-1.374,0-1.628-4.935-1.085-4.935-4.732,0-1.865,1.425-3.985,4.918-3.985a12.734,12.734,0,0,1,3.392.441l-.525,2.085a11.664,11.664,0,0,0-2.629-.339c-1.323,0-2.239.559-2.239,1.51,0,1.814,4.969,1.272,4.969,4.63,0,2.443-2,4.02-5.121,4.02a10.3,10.3,0,0,1-3.6-.644Z" transform="translate(-405.073 -32.475)"/><path class="c" d="M500.169,84.977a10.141,10.141,0,0,1-3.511.56c-3.222,0-5.376-1.917-5.376-5.241a6.836,6.836,0,0,1,7.089-7.106,14.463,14.463,0,0,1,2.917.34l-.61,2.069a9.418,9.418,0,0,0-2.12-.254,4.5,4.5,0,0,0-4.494,4.731,3.094,3.094,0,0,0,3.426,3.291,9.781,9.781,0,0,0,2.408-.272Z" transform="translate(-410.037 -32.475)"/></g><g transform="translate(62.198 7.908)"><path class="d" d="M113.629,36.608h18.23l-1.432,10.472H112.2L109.56,65.763H95.774l6.849-48.918a4.43,4.43,0,0,1,4.387-3.816h31.177l-1.432,10.1H115.512Z" transform="translate(-95.774 -13.029)"/><path class="d" d="M176.04,34.047h18.532l-1.506,10.4H174.534l-1.507,11.225h22l-1.431,10.094H157.81l6.849-48.918a4.43,4.43,0,0,1,4.387-3.816h31.93l-1.355,10.1H177.547Z" transform="translate(-115.996 -13.029)"/><path class="d" d="M223.238,52.959a51.038,51.038,0,0,0,13.378,1.88c4.556,0,7.232-1.446,7.232-4.556,0-5.856-20.031-4.41-20.031-19.813,0-7.81,5.857-17.356,21.549-17.356a53.948,53.948,0,0,1,14.39,1.808l-2.53,10.051a56.557,56.557,0,0,0-10.7-1.3c-4.99,0-8.533,1.879-8.533,5.35,0,6.654,20.247,5.206,20.247,19.308,0,10.557-8.822,17.428-22.345,17.428a45.093,45.093,0,0,1-15.547-2.749Z" transform="translate(-136.382 -13.057)"/><path class="d" d="M321.911,63.3A41.886,41.886,0,0,1,306.8,65.758c-13.957,0-23.213-8.244-23.213-22.489,0-17.572,12.51-30.155,30.371-30.155a62.443,62.443,0,0,1,12.51,1.375L323.5,24.612a33.533,33.533,0,0,0-8.677-1.085c-10.052,0-17.717,7.955-17.717,18.658,0,8.532,5.5,13.088,13.741,13.088a37.781,37.781,0,0,0,9.762-1.084Z" transform="translate(-156.996 -13.057)"/></g><g transform="translate(0 7.908)"><g transform="translate(9.629 5.805)"><path class="e" d="M25.942,26.58a1.522,1.522,0,0,0-1.479,1.265l-.992,6.793h8.058l1.285-8.058Zm0,0a1.522,1.522,0,0,0-1.479,1.265l-.992,6.793h8.058l1.285-8.058Z" transform="translate(-19.635 -23.252)"/><path class="f" d="M23.289,21.642a3.892,3.892,0,0,0-3.835,3.328L17.781,36.337h14.7l2.335-14.7ZM21.616,33.028l.992-6.793a1.522,1.522,0,0,1,1.479-1.265h6.871l-1.285,8.058Z" transform="translate(-17.781 -21.642)"/></g><g transform="translate(31.759 32.12)"><path class="e" d="M55.752,64.012,54.467,72.07h6.871a1.521,1.521,0,0,0,1.479-1.285l.992-6.773Zm-2.8-3.328L50.614,75.4H62.136a3.91,3.91,0,0,0,3.835-3.328l1.674-11.386ZM61.338,72.07H54.467l1.285-8.058H63.81l-.992,6.773A1.521,1.521,0,0,1,61.338,72.07Zm-5.586-8.058L54.467,72.07h6.871a1.521,1.521,0,0,0,1.479-1.285l.992-6.773Zm0,0L54.467,72.07h6.871a1.521,1.521,0,0,0,1.479-1.285l.992-6.773Zm0,0L54.467,72.07h6.871a1.521,1.521,0,0,0,1.479-1.285l.992-6.773Z" transform="translate(-50.614 -60.684)"/></g><path class="g" d="M32.705,52.073,28.533,78.389H9.711A6.21,6.21,0,0,1,3.561,71.3L6.389,52.073Z" transform="translate(-3.496 -25.757)"/><path class="h" d="M75.976,20.137,73.148,39.345H46.832L51,13.029H69.826A6.222,6.222,0,0,1,75.976,20.137Z" transform="translate(-17.622 -13.029)"/></g><line class="i" x1="9.203" y2="65.288" transform="translate(236.388 1.631)"/></g></svg>