<svg xmlns="http://www.w3.org/2000/svg" xmlns:xlink="http://www.w3.org/1999/xlink" width="156.121" height="35.538" viewBox="0 0 156.121 35.538"><defs><style>.a{fill:none;}.b{clip-path:url(#a);}.c,.d{fill:#fff;}.d{fill-rule:evenodd;}</style><clipPath id="a"><rect class="a" width="156.121" height="35.538"/></clipPath></defs><g class="b"><g transform="translate(41.915)"><path class="c" d="M107.806,28.919h12.285l-.965,7.057H106.842l-1.777,12.59H95.774L100.389,15.6a2.985,2.985,0,0,1,2.957-2.571h21.01l-.965,6.8H109.075Z" transform="translate(-95.774 -13.029)"/><path class="c" d="M170.1,27.193h12.489L181.569,34.2H169.08l-1.016,7.565h14.824l-.964,6.8H157.81L162.425,15.6a2.985,2.985,0,0,1,2.957-2.571H186.9l-.913,6.8H171.111Z" transform="translate(-129.632 -13.029)"/><path class="c" d="M222.3,39.965a34.394,34.394,0,0,0,9.015,1.267c3.071,0,4.873-.974,4.873-3.07,0-3.946-13.5-2.972-13.5-13.352,0-5.263,3.947-11.7,14.522-11.7a36.355,36.355,0,0,1,9.7,1.219L245.2,21.106a38.113,38.113,0,0,0-7.212-.877c-3.363,0-5.75,1.266-5.75,3.606,0,4.484,13.644,3.508,13.644,13.012,0,7.115-5.945,11.744-15.058,11.744a30.388,30.388,0,0,1-10.477-1.852Z" transform="translate(-163.762 -13.075)"/><path class="c" d="M309.413,46.935a28.227,28.227,0,0,1-10.185,1.657c-9.406,0-15.643-5.556-15.643-15.156,0-11.842,8.43-20.322,20.467-20.322a42.08,42.08,0,0,1,8.431.927l-2,6.822a22.6,22.6,0,0,0-5.848-.731c-6.774,0-11.94,5.361-11.94,12.573,0,5.75,3.7,8.82,9.26,8.82a25.461,25.461,0,0,0,6.579-.73Z" transform="translate(-198.277 -13.075)"/></g><g transform="translate(6.489 3.912)"><path class="d" d="M25.136,26.58a1.025,1.025,0,0,0-1,.853L23.47,32.01H28.9l.866-5.43Zm0,0a1.025,1.025,0,0,0-1,.853L23.47,32.01H28.9l.866-5.43Z" transform="translate(-20.886 -24.337)"/><path class="c" d="M21.493,21.642a2.623,2.623,0,0,0-2.584,2.243l-1.128,7.66h9.9l1.574-9.9Zm-1.128,7.673.669-4.578a1.025,1.025,0,0,1,1-.853h4.63l-.866,5.43Z" transform="translate(-17.781 -21.642)"/></g><g transform="translate(21.402 21.646)"><path class="d" d="M54.077,62.927l-.866,5.43h4.63a1.025,1.025,0,0,0,1-.866l.669-4.564Zm-1.889-2.243L50.614,70.6h7.765a2.635,2.635,0,0,0,2.584-2.243l1.128-7.673Zm5.653,7.673h-4.63l.866-5.43h5.43l-.669,4.564A1.025,1.025,0,0,1,57.841,68.357Zm-3.765-5.43-.866,5.43h4.63a1.025,1.025,0,0,0,1-.866l.669-4.564Zm0,0-.866,5.43h4.63a1.025,1.025,0,0,0,1-.866l.669-4.564Zm0,0-.866,5.43h4.63a1.025,1.025,0,0,0,1-.866l.669-4.564Z" transform="translate(-50.614 -60.684)"/></g><path class="d" d="M23.18,52.073,20.368,69.808H7.684a4.185,4.185,0,0,1-4.145-4.78L5.445,52.073Z" transform="translate(-3.496 -34.338)"/><path class="c" d="M66.472,17.819,64.567,30.764H46.832l2.812-17.735H62.327A4.193,4.193,0,0,1,66.472,17.819Z" transform="translate(-27.148 -13.029)"/></g></svg>