<svg xmlns="http://www.w3.org/2000/svg" xmlns:xlink="http://www.w3.org/1999/xlink" width="78.704" height="45.211" viewBox="0 0 78.704 45.211"><defs><style>.a{fill:none;}.b{clip-path:url(#a);}.c,.e{fill:#fff;}.d{fill:#00995d;}.e{fill-rule:evenodd;}</style><clipPath id="a"><rect class="a" width="78.704" height="45.211"/></clipPath></defs><g class="b"><g transform="translate(0.744 0)"><path class="c" d="M17.535,20.292V15.08H21v.42H18.026v1.883h2.686v.42H18.026v2.07h3.048v.419Z" transform="translate(-17.535 -14.943)"/><path class="c" d="M22.486,20.292V15.08h.752l1.708,4.6h.015l1.679-4.6h.745v5.212h-.492V15.645H26.88l-1.708,4.647h-.463l-1.716-4.647h-.014v4.647Z" transform="translate(-18.087 -14.943)"/><path class="c" d="M29.27,20.292V15.08h1.9c1.354,0,1.7.673,1.7,1.456,0,1.165-1.035,1.454-2,1.454H29.762v2.3Zm1.621-2.721c.92,0,1.492-.188,1.492-1.071,0-.652-.42-1-1.347-1H29.762v2.071Z" transform="translate(-18.844 -14.943)"/><path class="c" d="M34.755,17.926v2.367h-.493V15.08H36.3c1.143,0,1.773.406,1.773,1.368a1.223,1.223,0,0,1-.847,1.275c.615.21.651.861.666,1.412.021.788.087,1.006.217,1.108v.05H37.57a8,8,0,0,1-.232-1.73c-.115-.565-.542-.637-1.035-.637Zm1.533-.419c.732,0,1.3-.3,1.3-1.036,0-.782-.608-.97-1.266-.97H34.755v2.006Z" transform="translate(-19.401 -14.943)"/><path class="c" d="M39.7,20.292V15.08H43.17v.42H40.194v1.883h2.687v.42H40.194v2.07h3.048v.419Z" transform="translate(-20.009 -14.943)"/><path class="c" d="M44.847,18.719a1.318,1.318,0,0,0,1.5,1.275c.935,0,1.325-.506,1.325-1.079,0-1.613-3.178-.542-3.178-2.592,0-.723.6-1.4,1.767-1.4a1.548,1.548,0,0,1,1.751,1.557h-.47a1.137,1.137,0,0,0-1.281-1.137c-1,0-1.361.616-1.274,1.151.224,1.346,3.178.376,3.178,2.4,0,.956-.7,1.521-1.9,1.521a1.664,1.664,0,0,1-1.889-1.7Z" transform="translate(-20.529 -14.926)"/><path class="c" d="M49.117,20.292l2.049-5.212h.557l2,5.212h-.506l-.6-1.636H50.239l-.616,1.636Zm1.289-2.056h2.042L51.426,15.5Z" transform="translate(-21.059 -14.943)"/><path class="c" d="M57.351,20.292V15.08h1.781a2.552,2.552,0,0,1,1.607.392,2.769,2.769,0,0,1,.868,2.208,2.927,2.927,0,0,1-.63,1.976,2.317,2.317,0,0,1-1.845.637Zm.492-.419h1.18a2.462,2.462,0,0,0,1.224-.239,2.1,2.1,0,0,0,.868-1.955,2.084,2.084,0,0,0-.9-1.984,2.685,2.685,0,0,0-1.195-.2h-1.18Z" transform="translate(-21.978 -14.943)"/><path class="c" d="M65.406,14.926a2.448,2.448,0,0,1,2.455,2.751,2.446,2.446,0,1,1-4.858,0A2.451,2.451,0,0,1,65.406,14.926Zm1.962,2.751c0-1.448-.744-2.331-1.947-2.331-1.34,0-1.926,1.122-1.926,2.331,0,1.23.579,2.317,1.94,2.317S67.368,18.893,67.368,17.677Z" transform="translate(-22.608 -14.926)"/><path class="c" d="M72,18.719a1.318,1.318,0,0,0,1.5,1.275c.933,0,1.325-.506,1.325-1.079,0-1.613-3.178-.542-3.178-2.592,0-.723.6-1.4,1.766-1.4a1.55,1.55,0,0,1,1.752,1.557h-.472a1.136,1.136,0,0,0-1.28-1.137c-1,0-1.361.616-1.275,1.151.225,1.346,3.178.376,3.178,2.4,0,.956-.7,1.521-1.9,1.521a1.665,1.665,0,0,1-1.89-1.7Z" transform="translate(-23.559 -14.926)"/><path class="c" d="M77,20.292V15.08H77.5v5.212Z" transform="translate(-24.171 -14.943)"/><path class="c" d="M79.239,18.719a1.318,1.318,0,0,0,1.5,1.275c.934,0,1.325-.506,1.325-1.079,0-1.613-3.178-.542-3.178-2.592,0-.723.6-1.4,1.766-1.4A1.55,1.55,0,0,1,82.4,16.483h-.471a1.137,1.137,0,0,0-1.281-1.137c-1,0-1.361.616-1.275,1.151.226,1.346,3.179.376,3.179,2.4,0,.956-.7,1.521-1.9,1.521a1.665,1.665,0,0,1-1.89-1.7Z" transform="translate(-24.367 -14.926)"/><path class="c" d="M83.518,15.08h3.794v.42H85.661v4.792h-.492V15.5H83.518Z" transform="translate(-24.898 -14.943)"/><path class="c" d="M88.577,20.292V15.08h3.467v.42H89.068v1.883h2.687v.42H89.068v2.07h3.048v.419Z" transform="translate(-25.462 -14.943)"/><path class="c" d="M93.528,20.292V15.08h.752l1.708,4.6H96l1.679-4.6h.746v5.212h-.492V15.645h-.015l-1.708,4.647H95.75l-1.716-4.647H94.02v4.647Z" transform="translate(-26.014 -14.943)"/><path class="c" d="M99.8,20.292l2.049-5.212h.558l2,5.212H103.9l-.6-1.636H100.92l-.615,1.636Zm1.288-2.056h2.042l-1.02-2.736Z" transform="translate(-26.714 -14.943)"/></g><g transform="translate(0 10.791)"><path class="d" d="M22.817,61.092a5.611,5.611,0,0,1-5.605-5.606V33.192a5.612,5.612,0,0,1,5.605-5.607H89.4A5.611,5.611,0,0,1,95,33.192v27.9Z" transform="translate(-16.754 -27.129)"/><path class="c" d="M89.338,27.985a5.15,5.15,0,0,1,5.148,5.149V60.578H22.76a5.149,5.149,0,0,1-5.148-5.149V33.135a5.149,5.149,0,0,1,5.148-5.149H89.338m0-.913H22.76A6.069,6.069,0,0,0,16.7,33.135V55.429a6.07,6.07,0,0,0,6.063,6.063H95.4V33.135a6.069,6.069,0,0,0-6.063-6.063Z" transform="translate(-16.697 -27.072)"/><g transform="translate(8.546 7.537)"><path class="e" d="M81.383,36.933h2.748l4.131,5.5H85.515l2.056,2.749h-3.44L82.073,42.43h1.365l-2.055-2.748H79.325l2.058-2.749ZM70.127,52.053a1.842,1.842,0,0,1-.521.325,1.515,1.515,0,0,1-.538.1,1.044,1.044,0,0,1-.729-.232.766.766,0,0,1-.254-.592.806.806,0,0,1,.347-.665,1.215,1.215,0,0,1,.351-.16,3.508,3.508,0,0,1,.433-.073,4.479,4.479,0,0,0,.87-.168c0-.068,0-.11,0-.127a.538.538,0,0,0-.137-.419.814.814,0,0,0-.556-.166.855.855,0,0,0-.507.121.749.749,0,0,0-.243.426l-.476-.065a1.165,1.165,0,0,1,.213-.494.934.934,0,0,1,.432-.291,1.919,1.919,0,0,1,.652-.1,1.735,1.735,0,0,1,.6.087.789.789,0,0,1,.338.218.752.752,0,0,1,.152.331,2.87,2.87,0,0,1,.025.45V51.2a6.523,6.523,0,0,0,.032.859,1.094,1.094,0,0,0,.121.347h-.508a1,1,0,0,1-.1-.356Zm-.042-1.088a3.516,3.516,0,0,1-.8.185,1.85,1.85,0,0,0-.425.1.429.429,0,0,0-.262.391.419.419,0,0,0,.148.325.641.641,0,0,0,.432.128,1,1,0,0,0,.5-.123.763.763,0,0,0,.323-.338,1.184,1.184,0,0,0,.078-.486v-.179Zm-4.919,1.445V49.534H65.6v.408a1.032,1.032,0,0,1,.914-.474,1.2,1.2,0,0,1,.478.093.75.75,0,0,1,.327.246.95.95,0,0,1,.152.359,2.838,2.838,0,0,1,.027.474v1.769h-.488v-1.75a1.316,1.316,0,0,0-.057-.446.462.462,0,0,0-.2-.235.638.638,0,0,0-.341-.089.791.791,0,0,0-.537.2.979.979,0,0,0-.226.751v1.571ZM63.935,49v-.561h.489V49Zm0,3.409V49.534h.489v2.876Zm-1.853,0V49.534h.437v.434a1.194,1.194,0,0,1,.311-.4.543.543,0,0,1,.313-.1.952.952,0,0,1,.5.157l-.168.452a.688.688,0,0,0-.357-.106.475.475,0,0,0-.289.1.525.525,0,0,0-.179.268,1.826,1.826,0,0,0-.083.568v1.507Zm-1.2-.356a1.8,1.8,0,0,1-.521.325,1.5,1.5,0,0,1-.537.1,1.042,1.042,0,0,1-.728-.232.764.764,0,0,1-.255-.592.777.777,0,0,1,.1-.386.79.79,0,0,1,.251-.28,1.2,1.2,0,0,1,.35-.16,3.477,3.477,0,0,1,.433-.073,4.506,4.506,0,0,0,.871-.168c0-.068,0-.11,0-.127a.538.538,0,0,0-.139-.419.812.812,0,0,0-.554-.166.858.858,0,0,0-.509.121.744.744,0,0,0-.242.426l-.476-.065a1.188,1.188,0,0,1,.213-.494.931.931,0,0,1,.431-.291,1.919,1.919,0,0,1,.652-.1,1.728,1.728,0,0,1,.6.087.789.789,0,0,1,.338.218.752.752,0,0,1,.152.331,2.716,2.716,0,0,1,.023.45V51.2a6.874,6.874,0,0,0,.032.859,1.17,1.17,0,0,0,.123.347h-.509a1.074,1.074,0,0,1-.1-.356Zm-.039-1.088a3.54,3.54,0,0,1-.8.185,1.827,1.827,0,0,0-.425.1.406.406,0,0,0-.193.16.417.417,0,0,0-.068.231.421.421,0,0,0,.147.325.642.642,0,0,0,.433.128,1,1,0,0,0,.5-.123.758.758,0,0,0,.322-.338,1.153,1.153,0,0,0,.079-.486v-.179Zm-2.313,1.007.069.43a1.827,1.827,0,0,1-.368.044.828.828,0,0,1-.412-.084.469.469,0,0,1-.205-.221,1.757,1.757,0,0,1-.06-.575V49.912h-.358v-.378h.358v-.713l.486-.293v1.006h.49v.378h-.49v1.681a.9.9,0,0,0,.024.268.2.2,0,0,0,.085.1.321.321,0,0,0,.166.036,1.619,1.619,0,0,0,.214-.02Zm-2.273.081a1.827,1.827,0,0,1-.521.325,1.515,1.515,0,0,1-.538.1,1.042,1.042,0,0,1-.728-.232.763.763,0,0,1-.254-.592.8.8,0,0,1,.347-.665,1.194,1.194,0,0,1,.351-.16,3.457,3.457,0,0,1,.432-.073,4.451,4.451,0,0,0,.87-.168c0-.068,0-.11,0-.127a.535.535,0,0,0-.139-.419.8.8,0,0,0-.553-.166.864.864,0,0,0-.509.121.749.749,0,0,0-.242.426l-.475-.065a1.176,1.176,0,0,1,.213-.494.933.933,0,0,1,.43-.291,1.924,1.924,0,0,1,.653-.1,1.717,1.717,0,0,1,.6.087.682.682,0,0,1,.491.549,2.791,2.791,0,0,1,.024.45V51.2a6.761,6.761,0,0,0,.031.859,1.1,1.1,0,0,0,.123.347h-.509a1.033,1.033,0,0,1-.1-.356Zm-.041-1.088a3.494,3.494,0,0,1-.8.185,1.837,1.837,0,0,0-.426.1.417.417,0,0,0-.192.16.409.409,0,0,0-.068.231.416.416,0,0,0,.147.325.641.641,0,0,0,.432.128.991.991,0,0,0,.5-.123.751.751,0,0,0,.323-.338,1.155,1.155,0,0,0,.078-.486v-.179Zm-2.946.052.526.132a1.782,1.782,0,0,1-.594.987,1.638,1.638,0,0,1-1.05.338,1.892,1.892,0,0,1-1.043-.259,1.632,1.632,0,0,1-.611-.758,2.693,2.693,0,0,1-.211-1.064,2.334,2.334,0,0,1,.237-1.081,1.617,1.617,0,0,1,.675-.7,1.96,1.96,0,0,1,.961-.239,1.633,1.633,0,0,1,1,.3,1.576,1.576,0,0,1,.565.853l-.517.123a1.226,1.226,0,0,0-.4-.632,1.066,1.066,0,0,0-.661-.2,1.29,1.29,0,0,0-.765.219,1.154,1.154,0,0,0-.432.589,2.374,2.374,0,0,0-.124.761,2.459,2.459,0,0,0,.147.885,1.112,1.112,0,0,0,.459.564,1.292,1.292,0,0,0,.674.187,1.133,1.133,0,0,0,.747-.254,1.293,1.293,0,0,0,.414-.755Zm-5.641,1.036a1.83,1.83,0,0,1-.521.325,1.51,1.51,0,0,1-.537.1,1.044,1.044,0,0,1-.729-.232.766.766,0,0,1-.254-.592.786.786,0,0,1,.1-.386.8.8,0,0,1,.251-.28,1.2,1.2,0,0,1,.352-.16,3.447,3.447,0,0,1,.433-.073,4.482,4.482,0,0,0,.869-.168c0-.068,0-.11,0-.127a.535.535,0,0,0-.139-.419.808.808,0,0,0-.554-.166.86.86,0,0,0-.508.121.739.739,0,0,0-.242.426l-.477-.065a1.2,1.2,0,0,1,.214-.494.931.931,0,0,1,.431-.291,1.924,1.924,0,0,1,.653-.1,1.717,1.717,0,0,1,.6.087.79.79,0,0,1,.339.218.772.772,0,0,1,.151.331,2.761,2.761,0,0,1,.025.45V51.2a7.019,7.019,0,0,0,.03.859,1.146,1.146,0,0,0,.123.347h-.509a1.053,1.053,0,0,1-.1-.356Zm-.041-1.088a3.5,3.5,0,0,1-.8.185,1.85,1.85,0,0,0-.425.1.424.424,0,0,0-.193.16.431.431,0,0,0,.08.556.641.641,0,0,0,.432.128,1,1,0,0,0,.5-.123.758.758,0,0,0,.322-.338,1.169,1.169,0,0,0,.078-.486v-.179Zm-2.312,1.007.07.43a1.842,1.842,0,0,1-.368.044.826.826,0,0,1-.412-.084.464.464,0,0,1-.205-.221,1.7,1.7,0,0,1-.06-.575V49.912H43.94v-.378H44.3v-.713l.485-.293v1.006h.49v.378h-.49v1.681a.894.894,0,0,0,.025.268.208.208,0,0,0,.084.1.327.327,0,0,0,.166.036,1.669,1.669,0,0,0,.215-.02Zm-4.148.437V49.534h.437v.408a1.036,1.036,0,0,1,.915-.474,1.2,1.2,0,0,1,.479.093.752.752,0,0,1,.326.246.937.937,0,0,1,.153.359,2.94,2.94,0,0,1,.027.474v1.769h-.488v-1.75a1.316,1.316,0,0,0-.057-.446.477.477,0,0,0-.2-.235.632.632,0,0,0-.339-.089.792.792,0,0,0-.538.2.979.979,0,0,0-.226.751v1.571Zm-1.208-.356a1.815,1.815,0,0,1-.521.325,1.515,1.515,0,0,1-.538.1,1.043,1.043,0,0,1-.728-.232.766.766,0,0,1-.254-.592.8.8,0,0,1,.347-.665,1.194,1.194,0,0,1,.351-.16,3.456,3.456,0,0,1,.432-.073,4.477,4.477,0,0,0,.871-.168c0-.068,0-.11,0-.127a.535.535,0,0,0-.138-.419.811.811,0,0,0-.554-.166.857.857,0,0,0-.508.121.74.74,0,0,0-.243.426l-.475-.065a1.188,1.188,0,0,1,.213-.494.928.928,0,0,1,.43-.291,1.928,1.928,0,0,1,.653-.1,1.722,1.722,0,0,1,.6.087.787.787,0,0,1,.338.218.762.762,0,0,1,.152.331,2.822,2.822,0,0,1,.023.45V51.2a6.46,6.46,0,0,0,.033.859,1.076,1.076,0,0,0,.123.347h-.51a1.053,1.053,0,0,1-.1-.356Zm-.04-1.088a3.516,3.516,0,0,1-.8.185,1.827,1.827,0,0,0-.425.1.415.415,0,0,0-.193.16.409.409,0,0,0-.068.231.416.416,0,0,0,.147.325.64.64,0,0,0,.431.128,1,1,0,0,0,.5-.123.749.749,0,0,0,.322-.338,1.153,1.153,0,0,0,.079-.486v-.179Zm-5.65.168.495-.044a1.089,1.089,0,0,0,.164.49.89.89,0,0,0,.4.308,1.5,1.5,0,0,0,.609.117,1.455,1.455,0,0,0,.53-.089.738.738,0,0,0,.343-.244.575.575,0,0,0,.113-.34A.513.513,0,0,0,36.77,51a.806.806,0,0,0-.355-.234c-.108-.041-.343-.106-.708-.194a3.54,3.54,0,0,1-.766-.248,1.086,1.086,0,0,1-.425-.369.917.917,0,0,1-.139-.5,1.007,1.007,0,0,1,.17-.561,1.064,1.064,0,0,1,.5-.4,1.9,1.9,0,0,1,.729-.135,1.989,1.989,0,0,1,.779.142,1.124,1.124,0,0,1,.519.418,1.22,1.22,0,0,1,.195.626l-.5.038a.82.82,0,0,0-.275-.569,1.069,1.069,0,0,0-.691-.192,1.122,1.122,0,0,0-.7.174.527.527,0,0,0-.218.421.455.455,0,0,0,.155.353,2.11,2.11,0,0,0,.792.283,5.366,5.366,0,0,1,.879.252,1.229,1.229,0,0,1,.513.405,1,1,0,0,1,.164.565,1.077,1.077,0,0,1-.181.6,1.2,1.2,0,0,1-.521.436,1.827,1.827,0,0,1-.765.155,2.277,2.277,0,0,1-.9-.156,1.264,1.264,0,0,1-.572-.473,1.326,1.326,0,0,1-.217-.713Zm54.035-4.579h-15.2v-11H72.6v11H26.328v.459H72.6V54.9h.458V47.013h15.2v-.459ZM70.767,45.175V36.933H68v3.252h-.019a1.952,1.952,0,0,0-1.738-.878c-1.719,0-2.43,1.366-2.43,2.915,0,1.645.673,3.085,2.523,3.085a1.759,1.759,0,0,0,1.832-1.177h.018v1.046Zm-2.691-2.9c0,.544-.094,1.179-.673,1.179-.617,0-.711-.635-.711-1.234s.093-1.195.673-1.195c.617,0,.711.6.711,1.25Zm-8.683-.521c-.036-.45.093-1.122.749-1.122.616,0,.691.691.691,1.122Zm3.832,1.214v-.337c0-1.944-.785-3.326-3.009-3.326-2.316,0-3.551.971-3.551,2.9,0,1.982,1.235,3.1,3.551,3.1A8.875,8.875,0,0,0,62.8,44.97V43.493a4.307,4.307,0,0,1-1.868.355c-.823,0-1.477-.169-1.533-.879ZM45.865,45.175H48.63V41.867c0-.318,0-.767.5-.767.466,0,.466.449.466.767v3.308h2.785V41.867c0-.318,0-.767.467-.767.5,0,.5.449.5.767v3.308h2.766V41.737c0-1.122,0-2.43-2.018-2.43-.691,0-1.644.318-1.831.99h-.018a1.777,1.777,0,0,0-1.8-.99,1.942,1.942,0,0,0-1.962,1.12h-.02v-.99H45.865v5.737Zm-3.682,0h2.765V39.438H42.183v5.737Zm2.765-8.242H42.183V38.84h2.765V36.933ZM34.707,45.175h2.765V41.867c0-.318,0-.767.5-.767.487,0,.487.449.487.767v3.308h2.766V41.194c0-1.121-.542-1.887-2.018-1.887a1.9,1.9,0,0,0-1.869,1.12h-.018v-.99H34.707v5.737Zm-5.458-7.68H26.316v4.672c0,2.261,1.681,3.14,3.811,3.14,2.318,0,3.85-.823,3.85-3.308v-4.5H31.1v4.559c0,.748-.168,1.271-.935,1.271-.71,0-.915-.542-.915-1.271V37.495Zm52.133,2.187h2.055l-2.055-2.749h-2.75L74.5,42.43H77.25l-2.056,2.749h3.439L80.69,42.43H79.307l2.075-2.748Z" transform="translate(-26.316 -35.556)"/></g></g></g></svg>